<?xml version="1.0" encoding="UTF-8"?>
<svg id="Layer_1" xmlns="http://www.w3.org/2000/svg" version="1.1" viewBox="0 0 1080 50">
  <!-- Generator: Adobe Illustrator 29.1.0, SVG Export Plug-In . SVG Version: 2.1.0 Build 142)  -->
  <defs>
    <style>
      .st0 {
        fill: #103f0c;
      }

      .st1 {
        fill: #269e1d;
      }
    </style>
  </defs>
  <g>
    <path d="M39,30.7c1.6,0,1.8,2.6,0,2.6-1.5,0-1.8-2.6,0-2.6Z"/>
    <path d="M44.6,30.7c1.6,0,1.8,2.6,0,2.6-1.5,0-1.8-2.6,0-2.6Z"/>
    <path d="M50.2,30.7c1.6,0,1.8,2.6,0,2.6-1.5,0-1.8-2.6,0-2.6Z"/>
  </g>
  <path class="st1" d="M81.3,34.7c-.7,5.9-7.3,0-7.2-3.5-2.4-4.8,4.6-15.8,1.9-16-4.3,2.1-6.3,9.8-6.8,13.8.2,1.8-2.3,1.4-3,.3-4.4-4.4,6.9-22.7.9-19.2-5.7,5.1-11.6,16.4-10,23.9,1-1.1,0-3.2.6-5.8,1.4-4.3,2.5-7,3.1-8.2.6,2.8-.2,12.8,0,12-2,9.2-7.8.6-3.2-8.3,0-2.5.3-7.3-.3-9,1.5-1,4-1.2,3.7,1.7,1.8-3.4,6.9-10.9,11-6.7.9,4.8-3.6,10.5-3,15.3,1.7-4.1,3.4-10.2,8.1-11,2.1-.2,3.6,1.9,2.9,3.8-1.2,4.7-5.3,16.2,1.4,16.8Z"/>
  <path class="st1" d="M85.2,25.8c-1.3,12.4-7.5,7.5-5.3-1.9,0-1.8,1.9-1.7,2.7-1-.7,4.7-.3,14.5,1.8,2.8,0-.5.9-.5.8,0ZM81.1,22c-1.4-.6-.3-3.5,1.2-3.1,1.9.3,1.3,1.1.7,2.4,0,1-1.2,1-1.9.7Z"/>
  <path class="st1" d="M90.6,25.5c1.9,0-.7,7.7-1,8.3-6.9,8-5.7-14.7-3.7-17.7.6-1.7,1.6-5.1,4-3.9,3.4,3.1-.7,11.2-2.5,14.6,0,11.4,2.5,6.4,3.2-1.3ZM88.2,18.9c-.4,1.9-.6,3.9-.8,5.9,2.5-2.8,4-16.7.8-5.9Z"/>
  <path class="st1" d="M98,25.4c.3,12.9-13,7.9-6.1-2.5,1.3-1.6,4.5-1.6,4.8.7.3,2-2.3,3.6-4,4.1-.2,3.4,2.2,5.7,3.8,1.4.8-1,.4-3.2,1.5-3.8ZM92.9,26.6c.9.4,2.2-1.3,2.2-2.3-.3-2-2.1,1-2.2,2.3Z"/>
  <g>
    <path class="st0" d="M115.5,25c1.4,2.4-2.3,11.2-4.6,5.1-6.9,6.5-4.9-13.1,1.1-6.9.3-1.2,1.8-.8,2.1.1-.3,1.9-1,3.6-.9,5.5,1,5.4,1.6-3.9,2.3-3.9ZM111.7,24.1c-1.1-4.9-3.8,4.3-2.5,5.9,1.4,2.2,1.9-5,2.5-5.9Z"/>
    <path class="st0" d="M121.1,25c1.6.2-1,3.5-1.5,3.4.4,2.4-1.9,9.2-4.1,4.9-1.2-4.2-.5-10.9,1-14.9,1.1-2.9,3.1-3.5,3.9-1.3-2.5,1.6-2.3,5.6-2.9,9.2,1-.6,1.7.2,1.9,1.3.8-.3,1.1-1.6,1.6-2.6ZM118.2,32.2c.5-1.3.7-2.6.7-3.7-.5,0-1-.1-1.4-.4,0,.7-.2,5.4.7,4.1ZM117.6,27.2c0,.4.9.6,1.2.6-.1-.8-.4-1.4-1.2-.6Z"/>
    <path class="st0" d="M126.7,18.7c.4,1.1-1.5,1.1-2.4.9-1.2,2.9,0,18.4,1.2,7.5.2-.2-.4-2.5.6-2,.1,15.6-7.6,5.3-4.6-6-1-.2-1.3-.5-2,0-1,.2-.9-1,0-1,.7-.2,1.5.1,2.2.3.4-1.9,2-5.3,4.2-3.2-.8,1-1.2,2.4-1.5,3.7.5,0,1.3.3,1.6-.2.2-.3.5-.1.7,0Z"/>
    <path class="st0" d="M131.6,25c.2,10.6-10.6,6.5-5-2,1-1.3,3.7-1.3,3.9.6.2,1.6-1.8,2.9-3.2,3.3-.2,2.8,1.8,4.7,3.1,1.2.7-.8.3-2.6,1.2-3.1ZM127.3,25.9c.7.3,1.8-1.1,1.8-1.9-.3-1.7-1.8.8-1.8,1.9Z"/>
    <path class="st0" d="M138.1,25c1.6,0-.4,4.6-.8,5.8-.6,1.9-3.5,3-4.1.5-.1-1.9.3-2.7,1-4.9.2-.7-1.9,0-2.4-.8-3.8-3.1,3.6-7.4,1.3-1.4,1,.5,2.2-.3,3.1-.8,2.4.7-.4,4.6-.4,6.5.4,3.9,2.4-4.1,2.4-5ZM132.8,23.3c.2-.6.2-1.5-.4-1.2-.6.3-.1,3,.4,1.2Z"/>
  </g>
  <path class="st1" d="M174,34.7c-.7,5.9-7.3,0-7.2-3.5-2.4-4.8,4.6-15.8,1.9-16-4.3,2.1-6.3,9.8-6.8,13.8.2,1.8-2.3,1.4-3,.3-4.4-4.4,6.9-22.7.9-19.2-5.7,5.1-11.6,16.4-10,23.9,1-1.1,0-3.2.6-5.8,1.4-4.3,2.5-7,3.1-8.2.6,2.8-.2,12.8,0,12-2,9.2-7.8.6-3.2-8.3,0-2.5.3-7.3-.3-9,1.5-1,4-1.2,3.7,1.7,1.8-3.4,6.9-10.9,11-6.7.9,4.8-3.6,10.5-3,15.3,1.7-4.1,3.4-10.2,8.1-11,2.1-.2,3.6,1.9,2.9,3.8-1.2,4.7-5.3,16.2,1.4,16.8Z"/>
  <path class="st1" d="M177.9,25.8c-1.3,12.4-7.5,7.5-5.3-1.9,0-1.8,1.9-1.7,2.7-1-.7,4.7-.3,14.5,1.8,2.8,0-.5.9-.5.8,0ZM173.8,22c-1.4-.6-.3-3.5,1.2-3.1,1.9.3,1.3,1.1.7,2.4,0,1-1.2,1-1.9.7Z"/>
  <path class="st1" d="M183.3,25.5c1.9,0-.7,7.7-1,8.3-6.9,8-5.7-14.7-3.7-17.7.6-1.7,1.6-5.1,4-3.9,3.4,3.1-.7,11.2-2.5,14.6,0,11.4,2.5,6.4,3.2-1.3ZM180.9,18.9c-.4,1.9-.6,3.9-.8,5.9,2.5-2.8,4-16.7.8-5.9Z"/>
  <path class="st1" d="M190.7,25.4c.3,12.9-13,7.9-6.1-2.5,1.3-1.6,4.5-1.6,4.8.7.3,2-2.3,3.6-4,4.1-.2,3.4,2.2,5.7,3.8,1.4.8-1,.4-3.2,1.5-3.8ZM185.5,26.6c.9.4,2.2-1.3,2.2-2.3-.3-2-2.1,1-2.2,2.3Z"/>
  <path class="st1" d="M266.7,34.7c-.7,5.9-7.3,0-7.2-3.5-2.4-4.8,4.6-15.8,1.9-16-4.3,2.1-6.3,9.8-6.8,13.8.2,1.8-2.3,1.4-3,.3-4.4-4.4,6.9-22.7.9-19.2-5.7,5.1-11.6,16.4-10,23.9,1-1.1,0-3.2.6-5.8,1.4-4.3,2.5-7,3.1-8.2.6,2.8-.2,12.8,0,12-2,9.2-7.8.6-3.2-8.3,0-2.5.3-7.3-.3-9,1.5-1,4-1.2,3.7,1.7,1.8-3.4,6.9-10.9,11-6.7.9,4.8-3.6,10.5-3,15.3,1.7-4.1,3.4-10.2,8.1-11,2.1-.2,3.6,1.9,2.9,3.8-1.2,4.7-5.3,16.2,1.4,16.8Z"/>
  <path class="st1" d="M270.6,25.8c-1.3,12.4-7.5,7.5-5.3-1.9,0-1.8,1.9-1.7,2.7-1-.7,4.7-.3,14.5,1.8,2.8,0-.5.9-.5.8,0ZM266.5,22c-1.4-.6-.3-3.5,1.2-3.1,1.9.3,1.3,1.1.7,2.4,0,1-1.2,1-1.9.7Z"/>
  <path class="st1" d="M276,25.5c1.9,0-.7,7.7-1,8.3-6.9,8-5.7-14.7-3.7-17.7.6-1.7,1.6-5.1,4-3.9,3.4,3.1-.7,11.2-2.5,14.6,0,11.4,2.5,6.4,3.2-1.3ZM273.6,18.9c-.4,1.9-.6,3.9-.8,5.9,2.5-2.8,4-16.7.8-5.9Z"/>
  <path class="st1" d="M283.4,25.4c.3,12.9-13,7.9-6.1-2.5,1.3-1.6,4.5-1.6,4.8.7.3,2-2.3,3.6-4,4.1-.2,3.4,2.2,5.7,3.8,1.4.8-1,.4-3.2,1.5-3.8ZM278.2,26.6c.9.4,2.2-1.3,2.2-2.3-.3-2-2.1,1-2.2,2.3Z"/>
  <path class="st1" d="M359.4,34.7c-.7,5.9-7.3,0-7.2-3.5-2.4-4.8,4.6-15.8,1.9-16-4.3,2.1-6.3,9.8-6.8,13.8.2,1.8-2.3,1.4-3,.3-4.4-4.4,6.9-22.7.9-19.2-5.7,5.1-11.6,16.4-10,23.9,1-1.1,0-3.2.6-5.8,1.4-4.3,2.5-7,3.1-8.2.6,2.8-.2,12.8,0,12-2,9.2-7.8.6-3.2-8.3,0-2.5.3-7.3-.3-9,1.5-1,4-1.2,3.7,1.7,1.8-3.4,6.9-10.9,11-6.7.9,4.8-3.6,10.5-3,15.3,1.7-4.1,3.4-10.2,8.1-11,2.1-.2,3.6,1.9,2.9,3.8-1.2,4.7-5.3,16.2,1.4,16.8Z"/>
  <path class="st1" d="M363.3,25.8c-1.3,12.4-7.5,7.5-5.3-1.9,0-1.8,1.9-1.7,2.7-1-.7,4.7-.3,14.5,1.8,2.8,0-.5.9-.5.8,0ZM359.2,22c-1.4-.6-.3-3.5,1.2-3.1,1.9.3,1.3,1.1.7,2.4,0,1-1.2,1-1.9.7Z"/>
  <path class="st1" d="M368.7,25.5c1.9,0-.7,7.7-1,8.3-6.9,8-5.7-14.7-3.7-17.7.6-1.7,1.6-5.1,4-3.9,3.4,3.1-.7,11.2-2.5,14.6,0,11.4,2.5,6.4,3.2-1.3ZM366.3,18.9c-.4,1.9-.6,3.9-.8,5.9,2.5-2.8,4-16.7.8-5.9Z"/>
  <path class="st1" d="M376.1,25.4c.3,12.9-13,7.9-6.1-2.5,1.3-1.6,4.5-1.6,4.8.7.3,2-2.3,3.6-4,4.1-.2,3.4,2.2,5.7,3.8,1.4.8-1,.4-3.2,1.5-3.8ZM370.9,26.6c.9.4,2.2-1.3,2.2-2.3-.3-2-2.1,1-2.2,2.3Z"/>
  <path class="st1" d="M452.1,34.7c-.7,5.9-7.3,0-7.2-3.5-2.4-4.8,4.6-15.8,1.9-16-4.3,2.1-6.3,9.8-6.8,13.8.2,1.8-2.3,1.4-3,.3-4.4-4.4,6.9-22.7.9-19.2-5.7,5.1-11.6,16.4-10,23.9,1-1.1,0-3.2.6-5.8,1.4-4.3,2.5-7,3.1-8.2.6,2.8-.2,12.8,0,12-2,9.2-7.8.6-3.2-8.3,0-2.5.3-7.3-.3-9,1.5-1,4-1.2,3.7,1.7,1.8-3.4,6.9-10.9,11-6.7.9,4.8-3.6,10.5-3,15.3,1.7-4.1,3.4-10.2,8.1-11,2.1-.2,3.6,1.9,2.9,3.8-1.2,4.7-5.3,16.2,1.4,16.8Z"/>
  <path class="st1" d="M455.9,25.8c-1.3,12.4-7.5,7.5-5.3-1.9,0-1.8,1.9-1.7,2.7-1-.7,4.7-.3,14.5,1.8,2.8,0-.5.9-.5.8,0ZM451.9,22c-1.4-.6-.3-3.5,1.2-3.1,1.9.3,1.3,1.1.7,2.4,0,1-1.2,1-1.9.7Z"/>
  <path class="st1" d="M461.4,25.5c1.9,0-.7,7.7-1,8.3-6.9,8-5.7-14.7-3.7-17.7.6-1.7,1.6-5.1,4-3.9,3.4,3.1-.7,11.2-2.5,14.6,0,11.4,2.5,6.4,3.2-1.3ZM459,18.9c-.4,1.9-.6,3.9-.8,5.9,2.5-2.8,4-16.7.8-5.9Z"/>
  <path class="st1" d="M468.8,25.4c.3,12.9-13,7.9-6.1-2.5,1.3-1.6,4.5-1.6,4.8.7.3,2-2.3,3.6-4,4.1-.2,3.4,2.2,5.7,3.8,1.4.8-1,.4-3.2,1.5-3.8ZM463.6,26.6c.9.4,2.2-1.3,2.2-2.3-.3-2-2.1,1-2.2,2.3Z"/>
  <path class="st1" d="M544.7,34.7c.2,4-4.8,2.3-5.9-.1-4.1-6.1.5-13.3,1.2-19.1-2.8-1-4.2,3.9-5.3,5.8-1.6,3-1.8,6.4-2.5,8.8-6.2.5-2.8-9.8-1.8-13.2,6.6-16.1-6.3-1.1-8,5.4-1.5,4.1-3.5,8.9-1.8,11.8.5-1.9,0-3.1.4-5.9,1.4-4.3,2.5-7,3.1-8.2.6,2.8-.2,12.8,0,12-2,9.2-7.8.6-3.2-8.3,0-2.5.3-7.3-.3-9,1.5-1,4-1.2,3.7,1.7,1.8-3.4,6.9-10.9,11-6.7.9,4.8-3.6,10.5-3,15.3,1.7-4.1,3.4-10.2,8.1-11,2.1-.2,3.6,1.9,2.9,3.8-1.2,4.7-5.3,16.2,1.4,16.8Z"/>
  <path class="st1" d="M548.6,25.8c-1.3,12.4-7.5,7.5-5.3-1.9,0-1.8,1.9-1.7,2.7-1-.7,4.7-.3,14.5,1.8,2.8,0-.5.9-.5.8,0ZM544.5,22c-1.4-.6-.3-3.5,1.2-3.1,1.9.3,1.3,1.1.7,2.4,0,1-1.2,1-1.9.7Z"/>
  <path class="st1" d="M554.1,25.5c1.9,0-.7,7.7-1,8.3-6.9,8-5.7-14.7-3.7-17.7.6-1.7,1.6-5.1,4-3.9,3.4,3.1-.7,11.2-2.5,14.6,0,11.4,2.5,6.4,3.2-1.3ZM551.7,18.9c-.4,1.9-.6,3.9-.8,5.9,2.5-2.8,4-16.7.8-5.9Z"/>
  <path class="st1" d="M561.4,25.4c.3,12.9-13,7.9-6.1-2.5,1.3-1.6,4.5-1.6,4.8.7.3,2-2.3,3.6-4,4.1-.2,3.4,2.2,5.7,3.8,1.4.8-1,.4-3.2,1.5-3.8ZM556.3,26.6c.9.4,2.2-1.3,2.2-2.3-.3-2-2.1,1-2.2,2.3Z"/>
  <path class="st1" d="M637.4,34.7c.2,4-4.8,2.3-5.9-.1-4.1-6.1.5-13.3,1.2-19.1-4.4-.6-7.2,10.4-7.5,13.5,0,1.2-.4,1.3-1.5,1.2-4.1-1.5-2-7.9-1.4-11.1.5-2.6,5.9-13-.5-8-4.1,4.1-7.5,11.7-8.8,17.2-.4,2.4-.8,5.3.4,5.7-.7-3.5,2.3-12.5,3.3-14,.6,2.8-.2,12.8,0,12,.4,2.9-3.2,5.6-4.6,2-1.7-5.4,3.5-13.4.9-19,.6-1.6,4.4-1.7,3.9,1.3,1.8-3.4,6.9-10.9,11-6.7.9,4.8-3.6,10.5-3,15.3,1.7-4.1,3.4-10.2,8.1-11,2.1-.2,3.6,1.9,2.9,3.8-1.2,4.7-5.3,16.2,1.4,16.8Z"/>
  <path class="st1" d="M641.3,25.8c-1.3,12.4-7.5,7.5-5.3-1.9,0-1.8,1.9-1.7,2.7-1-.7,4.7-.3,14.5,1.8,2.8,0-.5.9-.5.8,0ZM637.2,22c-1.4-.6-.3-3.5,1.2-3.1,1.9.3,1.3,1.1.7,2.4,0,1-1.2,1-1.9.7Z"/>
  <path class="st1" d="M646.8,25.5c1.9,0-.7,7.7-1,8.3-6.9,8-5.7-14.7-3.7-17.7.6-1.7,1.6-5.1,4-3.9,3.4,3.1-.7,11.2-2.5,14.6,0,11.4,2.5,6.4,3.2-1.3ZM644.4,18.9c-.4,1.9-.6,3.9-.8,5.9,2.5-2.8,4-16.7.8-5.9Z"/>
  <path class="st1" d="M654.1,25.4c.3,12.9-13,7.9-6.1-2.5,1.3-1.6,4.5-1.6,4.8.7.3,2-2.3,3.6-4,4.1-.2,3.4,2.2,5.7,3.8,1.4.8-1,.4-3.2,1.5-3.8ZM649,26.6c.9.4,2.2-1.3,2.2-2.3-.3-2-2.1,1-2.2,2.3Z"/>
  <path class="st1" d="M730.1,34.7c.2,4-4.8,2.3-5.9-.1-4.1-6.1.5-13.3,1.2-19.1-4.4-.6-7.2,10.4-7.5,13.5,0,1.2-.4,1.3-1.5,1.2-4.1-1.5-2-7.9-1.4-11.1.5-2.6,5.9-13-.5-8-4.1,4.1-7.5,11.7-8.8,17.2-.4,2.4-.8,5.3.4,5.7-.7-3.5,2.3-12.5,3.3-14,.6,2.8-.2,12.8,0,12,.4,2.9-3.2,5.6-4.6,2-1.7-5.4,3.5-13.4.9-19,.6-1.6,4.4-1.7,3.9,1.3,1.8-3.4,6.9-10.9,11-6.7.9,4.8-3.6,10.5-3,15.3,1.7-4.1,3.4-10.2,8.1-11,2.1-.2,3.6,1.9,2.9,3.8-1.2,4.7-5.3,16.2,1.4,16.8Z"/>
  <path class="st1" d="M734,25.8c-1.3,12.4-7.5,7.5-5.3-1.9,0-1.8,1.9-1.7,2.7-1-.7,4.7-.3,14.5,1.8,2.8,0-.5.9-.5.8,0ZM729.9,22c-1.4-.6-.3-3.5,1.2-3.1,1.9.3,1.3,1.1.7,2.4,0,1-1.2,1-1.9.7Z"/>
  <path class="st1" d="M739.5,25.5c1.9,0-.7,7.7-1,8.3-6.9,8-5.7-14.7-3.7-17.7.6-1.7,1.6-5.1,4-3.9,3.4,3.1-.7,11.2-2.5,14.6,0,11.4,2.5,6.4,3.2-1.3ZM737,18.9c-.4,1.9-.6,3.9-.8,5.9,2.5-2.8,4-16.7.8-5.9Z"/>
  <path class="st1" d="M746.8,25.4c.3,12.9-13,7.9-6.1-2.5,1.3-1.6,4.5-1.6,4.8.7.3,2-2.3,3.6-4,4.1-.2,3.4,2.2,5.7,3.8,1.4.8-1,.4-3.2,1.5-3.8ZM741.7,26.6c.9.4,2.2-1.3,2.2-2.3-.3-2-2.1,1-2.2,2.3Z"/>
  <path class="st1" d="M822.8,34.7c.2,4-4.8,2.3-5.9-.1-4.1-6.1.5-13.3,1.2-19.1-4.4-.6-7.2,10.4-7.5,13.5,0,1.2-.4,1.3-1.5,1.2-4.1-1.5-2-7.9-1.4-11.1.5-2.6,5.9-13-.5-8-4.1,4.1-7.5,11.7-8.8,17.2-.4,2.4-.8,5.3.4,5.7-.7-3.5,2.3-12.5,3.3-14,.6,2.8-.2,12.8,0,12,.4,2.9-3.2,5.6-4.6,2-1.7-5.4,3.5-13.4.9-19,.6-1.6,4.4-1.7,3.9,1.3,1.8-3.4,6.9-10.9,11-6.7.9,4.8-3.6,10.5-3,15.3,1.7-4.1,3.4-10.2,8.1-11,2.1-.2,3.6,1.9,2.9,3.8-1.2,4.7-5.3,16.2,1.4,16.8Z"/>
  <path class="st1" d="M826.7,25.8c-1.3,12.4-7.5,7.5-5.3-1.9,0-1.8,1.9-1.7,2.7-1-.7,4.7-.3,14.5,1.8,2.8,0-.5.9-.5.8,0ZM822.6,22c-1.4-.6-.3-3.5,1.2-3.1,1.9.3,1.3,1.1.7,2.4,0,1-1.2,1-1.9.7Z"/>
  <path class="st1" d="M832.1,25.5c1.9,0-.7,7.7-1,8.3-6.9,8-5.7-14.7-3.7-17.7.6-1.7,1.6-5.1,4-3.9,3.4,3.1-.7,11.2-2.5,14.6,0,11.4,2.5,6.4,3.2-1.3ZM829.7,18.9c-.4,1.9-.6,3.9-.8,5.9,2.5-2.8,4-16.7.8-5.9Z"/>
  <path class="st1" d="M839.5,25.4c.3,12.9-13,7.9-6.1-2.5,1.3-1.6,4.5-1.6,4.8.7.3,2-2.3,3.6-4,4.1-.2,3.4,2.2,5.7,3.8,1.4.8-1,.4-3.2,1.5-3.8ZM834.3,26.6c.9.4,2.2-1.3,2.2-2.3-.3-2-2.1,1-2.2,2.3Z"/>
  <path class="st1" d="M915.5,34.7c.2,4-4.8,2.3-5.9-.1-4.1-6.1.5-13.3,1.2-19.1-4.4-.6-7.2,10.4-7.5,13.5,0,1.2-.4,1.3-1.5,1.2-4.1-1.5-2-7.9-1.4-11.1.5-2.6,5.9-13-.5-8-4.1,4.1-7.5,11.7-8.8,17.2-.4,2.4-.8,5.3.4,5.7-.7-3.5,2.3-12.5,3.3-14,.6,2.8-.2,12.8,0,12,.4,2.9-3.2,5.6-4.6,2-1.7-5.4,3.5-13.4.9-19,.6-1.6,4.4-1.7,3.9,1.3,1.8-3.4,6.9-10.9,11-6.7.9,4.8-3.6,10.5-3,15.3,1.7-4.1,3.4-10.2,8.1-11,2.1-.2,3.6,1.9,2.9,3.8-1.2,4.7-5.3,16.2,1.4,16.8Z"/>
  <path class="st1" d="M919.4,25.8c-1.3,12.4-7.5,7.5-5.3-1.9,0-1.8,1.9-1.7,2.7-1-.7,4.7-.3,14.5,1.8,2.8,0-.5.9-.5.8,0ZM915.3,22c-1.4-.6-.3-3.5,1.2-3.1,1.9.3,1.3,1.1.7,2.4,0,1-1.2,1-1.9.7Z"/>
  <path class="st1" d="M924.8,25.5c1.9,0-.7,7.7-1,8.3-6.9,8-5.7-14.7-3.7-17.7.6-1.7,1.6-5.1,4-3.9,3.4,3.1-.7,11.2-2.5,14.6,0,11.4,2.5,6.4,3.2-1.3ZM922.4,18.9c-.4,1.9-.6,3.9-.8,5.9,2.5-2.8,4-16.7.8-5.9Z"/>
  <path class="st1" d="M932.2,25.4c.3,12.9-13,7.9-6.1-2.5,1.3-1.6,4.5-1.6,4.8.7.3,2-2.3,3.6-4,4.1-.2,3.4,2.2,5.7,3.8,1.4.8-1,.4-3.2,1.5-3.8ZM927,26.6c.9.4,2.2-1.3,2.2-2.3-.3-2-2.1,1-2.2,2.3Z"/>
  <path class="st1" d="M1008.2,34.7c.2,4-4.8,2.3-5.9-.1-4.1-6.1.5-13.3,1.2-19.1-4.4-.6-7.2,10.4-7.5,13.5,0,1.2-.4,1.3-1.5,1.2-4.1-1.5-2-7.9-1.4-11.1.5-2.6,5.9-13-.5-8-4.1,4.1-7.5,11.7-8.8,17.2-.4,2.4-.8,5.3.4,5.7-.7-3.5,2.3-12.5,3.3-14,.6,2.8-.2,12.8,0,12,.4,2.9-3.2,5.6-4.6,2-1.7-5.4,3.5-13.4.9-19,.6-1.6,4.4-1.7,3.9,1.3,1.8-3.4,6.9-10.9,11-6.7.9,4.8-3.6,10.5-3,15.3,1.7-4.1,3.4-10.2,8.1-11,2.1-.2,3.6,1.9,2.9,3.8-1.2,4.7-5.3,16.2,1.4,16.8Z"/>
  <path class="st1" d="M1012.1,25.8c-1.3,12.4-7.5,7.5-5.3-1.9,0-1.8,1.9-1.7,2.7-1-.7,4.7-.3,14.5,1.8,2.8,0-.5.9-.5.8,0ZM1008,22c-1.4-.6-.3-3.5,1.2-3.1,1.9.3,1.3,1.1.7,2.4,0,1-1.2,1-1.9.7Z"/>
  <path class="st1" d="M1017.5,25.5c1.9,0-.7,7.7-1,8.3-6.9,8-5.7-14.7-3.7-17.7.6-1.7,1.6-5.1,4-3.9,3.4,3.1-.7,11.2-2.5,14.6,0,11.4,2.5,6.4,3.2-1.3ZM1015.1,18.9c-.4,1.9-.6,3.9-.8,5.9,2.5-2.8,4-16.7.8-5.9Z"/>
  <path class="st1" d="M1024.9,25.4c.3,12.9-13,7.9-6.1-2.5,1.3-1.6,4.5-1.6,4.8.7.3,2-2.3,3.6-4,4.1-.2,3.4,2.2,5.7,3.8,1.4.8-1,.4-3.2,1.5-3.8ZM1019.7,26.6c.9.4,2.2-1.3,2.2-2.3-.3-2-2.1,1-2.2,2.3Z"/>
  <g>
    <path d="M1030.3,30.8c1.6,0,1.8,2.6,0,2.6-1.5,0-1.8-2.6,0-2.6Z"/>
    <path d="M1035.9,30.8c1.6,0,1.8,2.6,0,2.6-1.5,0-1.8-2.6,0-2.6Z"/>
    <path d="M1041.5,30.8c1.6,0,1.8,2.6,0,2.6-1.5,0-1.8-2.6,0-2.6Z"/>
  </g>
  <g>
    <path class="st0" d="M208.8,24.4c1.4,2.4-2.3,11.2-4.6,5.1-6.9,6.5-4.9-13.1,1.1-6.9.3-1.2,1.8-.8,2.1.1-.3,1.9-1,3.6-.9,5.5,1,5.4,1.6-3.9,2.3-3.9ZM205,23.5c-1.1-4.9-3.8,4.3-2.5,5.9,1.4,2.2,1.9-5,2.5-5.9Z"/>
    <path class="st0" d="M214.4,24.4c1.6.2-1,3.5-1.5,3.4.4,2.4-1.9,9.2-4.1,4.9-1.2-4.2-.5-10.9,1-14.9,1.1-2.9,3.1-3.5,3.9-1.3-2.5,1.6-2.3,5.6-2.9,9.2,1-.6,1.7.2,1.9,1.3.8-.3,1.1-1.6,1.6-2.6ZM211.5,31.7c.5-1.3.7-2.6.7-3.7-.5,0-1-.1-1.4-.4,0,.7-.2,5.4.7,4.1ZM210.9,26.6c0,.4.9.6,1.2.6-.1-.8-.4-1.4-1.2-.6Z"/>
    <path class="st0" d="M219.9,18.1c.4,1.1-1.5,1.1-2.4.9-1.2,2.9,0,18.4,1.2,7.5.2-.2-.4-2.5.6-2,.1,15.6-7.6,5.3-4.6-6-1-.2-1.3-.5-2,0-1,.2-.9-1,0-1,.7-.2,1.5.1,2.2.3.4-1.9,2-5.3,4.2-3.2-.8,1-1.2,2.4-1.5,3.7.5,0,1.3.3,1.6-.2.2-.3.5-.1.7,0Z"/>
    <path class="st0" d="M224.8,24.4c.2,10.6-10.6,6.5-5-2,1-1.3,3.7-1.3,3.9.6.2,1.6-1.8,2.9-3.2,3.3-.2,2.8,1.8,4.7,3.1,1.2.7-.8.3-2.6,1.2-3.1ZM220.6,25.3c.7.3,1.8-1.1,1.8-1.9-.3-1.7-1.8.8-1.8,1.9Z"/>
    <path class="st0" d="M231.4,24.5c1.6,0-.4,4.6-.8,5.8-.6,1.9-3.5,3-4.1.5-.1-1.9.3-2.7,1-4.9.2-.7-1.9,0-2.4-.8-3.8-3.1,3.6-7.4,1.3-1.4,1,.5,2.2-.3,3.1-.8,2.4.7-.4,4.6-.4,6.5.4,3.9,2.4-4.1,2.4-5ZM226.1,22.7c.2-.6.2-1.5-.4-1.2-.6.3-.1,3,.4,1.2Z"/>
  </g>
  <g>
    <path class="st0" d="M301.3,24.8c1.4,2.4-2.3,11.2-4.6,5.1-6.9,6.5-4.9-13.1,1.1-6.9.3-1.2,1.8-.8,2.1.1-.3,1.9-1,3.6-.9,5.5,1,5.4,1.6-3.9,2.3-3.9ZM297.5,23.9c-1.1-4.9-3.8,4.3-2.5,5.9,1.4,2.2,1.9-5,2.5-5.9Z"/>
    <path class="st0" d="M306.9,24.8c1.6.2-1,3.5-1.5,3.4.4,2.4-1.9,9.2-4.1,4.9-1.2-4.2-.5-10.9,1-14.9,1.1-2.9,3.1-3.5,3.9-1.3-2.5,1.6-2.3,5.6-2.9,9.2,1-.6,1.7.2,1.9,1.3.8-.3,1.1-1.6,1.6-2.6ZM304,32.1c.5-1.3.7-2.6.7-3.7-.5,0-1-.1-1.4-.4,0,.7-.2,5.4.7,4.1ZM303.4,27c0,.4.9.6,1.2.6-.1-.8-.4-1.4-1.2-.6Z"/>
    <path class="st0" d="M312.4,18.5c.4,1.1-1.5,1.1-2.4.9-1.2,2.9,0,18.4,1.2,7.5.2-.2-.4-2.5.6-2,.1,15.6-7.6,5.3-4.6-6-1-.2-1.3-.5-2,0-1,.2-.9-1,0-1,.7-.2,1.5.1,2.2.3.4-1.9,2-5.3,4.2-3.2-.8,1-1.2,2.4-1.5,3.7.5,0,1.3.3,1.6-.2.2-.3.5-.1.7,0Z"/>
    <path class="st0" d="M317.3,24.8c.2,10.6-10.6,6.5-5-2,1-1.3,3.7-1.3,3.9.6.2,1.6-1.8,2.9-3.2,3.3-.2,2.8,1.8,4.7,3.1,1.2.7-.8.3-2.6,1.2-3.1ZM313.1,25.7c.7.3,1.8-1.1,1.8-1.9-.3-1.7-1.8.8-1.8,1.9Z"/>
    <path class="st0" d="M323.9,24.9c1.6,0-.4,4.6-.8,5.8-.6,1.9-3.5,3-4.1.5-.1-1.9.3-2.7,1-4.9.2-.7-1.9,0-2.4-.8-3.8-3.1,3.6-7.4,1.3-1.4,1,.5,2.2-.3,3.1-.8,2.4.7-.4,4.6-.4,6.5.4,3.9,2.4-4.1,2.4-5ZM318.5,23.1c.2-.6.2-1.5-.4-1.2-.6.3-.1,3,.4,1.2Z"/>
  </g>
  <g>
    <path class="st0" d="M394.2,24.2c1.4,2.4-2.3,11.2-4.6,5.1-6.9,6.5-4.9-13.1,1.1-6.9.3-1.2,1.8-.8,2.1.1-.3,1.9-1,3.6-.9,5.5,1,5.4,1.6-3.9,2.3-3.9ZM390.4,23.4c-1.1-4.9-3.8,4.3-2.5,5.9,1.4,2.2,1.9-5,2.5-5.9Z"/>
    <path class="st0" d="M399.8,24.3c1.6.2-1,3.5-1.5,3.4.4,2.4-1.9,9.2-4.1,4.9-1.2-4.2-.5-10.9,1-14.9,1.1-2.9,3.1-3.5,3.9-1.3-2.5,1.6-2.3,5.6-2.9,9.2,1-.6,1.7.2,1.9,1.3.8-.3,1.1-1.6,1.6-2.6ZM396.9,31.5c.5-1.3.7-2.6.7-3.7-.5,0-1-.1-1.4-.4,0,.7-.2,5.4.7,4.1ZM396.3,26.5c0,.4.9.6,1.2.6-.1-.8-.4-1.4-1.2-.6Z"/>
    <path class="st0" d="M405.3,18c.4,1.1-1.5,1.1-2.4.9-1.2,2.9,0,18.4,1.2,7.5.2-.2-.4-2.5.6-2,.1,15.6-7.6,5.3-4.6-6-1-.2-1.3-.5-2,0-1,.2-.9-1,0-1,.7-.2,1.5.1,2.2.3.4-1.9,2-5.3,4.2-3.2-.8,1-1.2,2.4-1.5,3.7.5,0,1.3.3,1.6-.2.2-.3.5-.1.7,0Z"/>
    <path class="st0" d="M410.2,24.2c.2,10.6-10.6,6.5-5-2,1-1.3,3.7-1.3,3.9.6.2,1.6-1.8,2.9-3.2,3.3-.2,2.8,1.8,4.7,3.1,1.2.7-.8.3-2.6,1.2-3.1ZM406,25.2c.7.3,1.8-1.1,1.8-1.9-.3-1.7-1.8.8-1.8,1.9Z"/>
    <path class="st0" d="M416.8,24.3c1.6,0-.4,4.6-.8,5.8-.6,1.9-3.5,3-4.1.5-.1-1.9.3-2.7,1-4.9.2-.7-1.9,0-2.4-.8-3.8-3.1,3.6-7.4,1.3-1.4,1,.5,2.2-.3,3.1-.8,2.4.7-.4,4.6-.4,6.5.4,3.9,2.4-4.1,2.4-5ZM411.4,22.5c.2-.6.2-1.5-.4-1.2-.6.3-.1,3,.4,1.2Z"/>
  </g>
  <g>
    <path class="st0" d="M486.9,24.8c1.4,2.4-2.3,11.2-4.6,5.1-6.9,6.5-4.9-13.1,1.1-6.9.3-1.2,1.8-.8,2.1.1-.3,1.9-1,3.6-.9,5.5,1,5.4,1.6-3.9,2.3-3.9ZM483.1,24c-1.1-4.9-3.8,4.3-2.5,5.9,1.4,2.2,1.9-5,2.5-5.9Z"/>
    <path class="st0" d="M492.5,24.9c1.6.2-1,3.5-1.5,3.4.4,2.4-1.9,9.2-4.1,4.9-1.2-4.2-.5-10.9,1-14.9,1.1-2.9,3.1-3.5,3.9-1.3-2.5,1.6-2.3,5.6-2.9,9.2,1-.6,1.7.2,1.9,1.3.8-.3,1.1-1.6,1.6-2.6ZM489.6,32.1c.5-1.3.7-2.6.7-3.7-.5,0-1-.1-1.4-.4,0,.7-.2,5.4.7,4.1ZM489,27.1c0,.4.9.6,1.2.6-.1-.8-.4-1.4-1.2-.6Z"/>
    <path class="st0" d="M498,18.6c.4,1.1-1.5,1.1-2.4.9-1.2,2.9,0,18.4,1.2,7.5.2-.2-.4-2.5.6-2,.1,15.6-7.6,5.3-4.6-6-1-.2-1.3-.5-2,0-1,.2-.9-1,0-1,.7-.2,1.5.1,2.2.3.4-1.9,2-5.3,4.2-3.2-.8,1-1.2,2.4-1.5,3.7.5,0,1.3.3,1.6-.2.2-.3.5-.1.7,0Z"/>
    <path class="st0" d="M502.9,24.8c.2,10.6-10.6,6.5-5-2,1-1.3,3.7-1.3,3.9.6.2,1.6-1.8,2.9-3.2,3.3-.2,2.8,1.8,4.7,3.1,1.2.7-.8.3-2.6,1.2-3.1ZM498.7,25.8c.7.3,1.8-1.1,1.8-1.9-.3-1.7-1.8.8-1.8,1.9Z"/>
    <path class="st0" d="M509.5,24.9c1.6,0-.4,4.6-.8,5.8-.6,1.9-3.5,3-4.1.5-.1-1.9.3-2.7,1-4.9.2-.7-1.9,0-2.4-.8-3.8-3.1,3.6-7.4,1.3-1.4,1,.5,2.2-.3,3.1-.8,2.4.7-.4,4.6-.4,6.5.4,3.9,2.4-4.1,2.4-5ZM504.1,23.1c.2-.6.2-1.5-.4-1.2-.6.3-.1,3,.4,1.2Z"/>
  </g>
  <g>
    <path class="st0" d="M580.3,24.5c1.4,2.4-2.3,11.2-4.6,5.1-6.9,6.5-4.9-13.1,1.1-6.9.3-1.2,1.8-.8,2.1.1-.3,1.9-1,3.6-.9,5.5,1,5.4,1.6-3.9,2.3-3.9ZM576.5,23.7c-1.1-4.9-3.8,4.3-2.5,5.9,1.4,2.2,1.9-5,2.5-5.9Z"/>
    <path class="st0" d="M585.9,24.5c1.6.2-1,3.5-1.5,3.4.4,2.4-1.9,9.2-4.1,4.9-1.2-4.2-.5-10.9,1-14.9,1.1-2.9,3.1-3.5,3.9-1.3-2.5,1.6-2.3,5.6-2.9,9.2,1-.6,1.7.2,1.9,1.3.8-.3,1.1-1.6,1.6-2.6ZM583,31.8c.5-1.3.7-2.6.7-3.7-.5,0-1-.1-1.4-.4,0,.7-.2,5.4.7,4.1ZM582.4,26.8c0,.4.9.6,1.2.6-.1-.8-.4-1.4-1.2-.6Z"/>
    <path class="st0" d="M591.5,18.2c.4,1.1-1.5,1.1-2.4.9-1.2,2.9,0,18.4,1.2,7.5.2-.2-.4-2.5.6-2,.1,15.6-7.6,5.3-4.6-6-1-.2-1.3-.5-2,0-1,.2-.9-1,0-1,.7-.2,1.5.1,2.2.3.4-1.9,2-5.3,4.2-3.2-.8,1-1.2,2.4-1.5,3.7.5,0,1.3.3,1.6-.2.2-.3.5-.1.7,0Z"/>
    <path class="st0" d="M596.4,24.5c.2,10.6-10.6,6.5-5-2,1-1.3,3.7-1.3,3.9.6.2,1.6-1.8,2.9-3.2,3.3-.2,2.8,1.8,4.7,3.1,1.2.7-.8.3-2.6,1.2-3.1ZM592.1,25.5c.7.3,1.8-1.1,1.8-1.9-.3-1.7-1.8.8-1.8,1.9Z"/>
    <path class="st0" d="M602.9,24.6c1.6,0-.4,4.6-.8,5.8-.6,1.9-3.5,3-4.1.5-.1-1.9.3-2.7,1-4.9.2-.7-1.9,0-2.4-.8-3.8-3.1,3.6-7.4,1.3-1.4,1,.5,2.2-.3,3.1-.8,2.4.7-.4,4.6-.4,6.5.4,3.9,2.4-4.1,2.4-5ZM597.6,22.8c.2-.6.2-1.5-.4-1.2-.6.3-.1,3,.4,1.2Z"/>
  </g>
  <g>
    <path class="st0" d="M672.3,24.6c1.4,2.4-2.3,11.2-4.6,5.1-6.9,6.5-4.9-13.1,1.1-6.9.3-1.2,1.8-.8,2.1.1-.3,1.9-1,3.6-.9,5.5,1,5.4,1.6-3.9,2.3-3.9ZM668.4,23.7c-1.1-4.9-3.8,4.3-2.5,5.9,1.4,2.2,1.9-5,2.5-5.9Z"/>
    <path class="st0" d="M677.9,24.6c1.6.2-1,3.5-1.5,3.4.4,2.4-1.9,9.2-4.1,4.9-1.2-4.2-.5-10.9,1-14.9,1.1-2.9,3.1-3.5,3.9-1.3-2.5,1.6-2.3,5.6-2.9,9.2,1-.6,1.7.2,1.9,1.3.8-.3,1.1-1.6,1.6-2.6ZM675,31.8c.5-1.3.7-2.6.7-3.7-.5,0-1-.1-1.4-.4,0,.7-.2,5.4.7,4.1ZM674.4,26.8c0,.4.9.6,1.2.6-.1-.8-.4-1.4-1.2-.6Z"/>
    <path class="st0" d="M683.4,18.3c.4,1.1-1.5,1.1-2.4.9-1.2,2.9,0,18.4,1.2,7.5.2-.2-.4-2.5.6-2,.1,15.6-7.6,5.3-4.6-6-1-.2-1.3-.5-2,0-1,.2-.9-1,0-1,.7-.2,1.5.1,2.2.3.4-1.9,2-5.3,4.2-3.2-.8,1-1.2,2.4-1.5,3.7.5,0,1.3.3,1.6-.2.2-.3.5-.1.7,0Z"/>
    <path class="st0" d="M688.3,24.6c.2,10.6-10.6,6.5-5-2,1-1.3,3.7-1.3,3.9.6.2,1.6-1.8,2.9-3.2,3.3-.2,2.8,1.8,4.7,3.1,1.2.7-.8.3-2.6,1.2-3.1ZM684,25.5c.7.3,1.8-1.1,1.8-1.9-.3-1.7-1.8.8-1.8,1.9Z"/>
    <path class="st0" d="M694.8,24.6c1.6,0-.4,4.6-.8,5.8-.6,1.9-3.5,3-4.1.5-.1-1.9.3-2.7,1-4.9.2-.7-1.9,0-2.4-.8-3.8-3.1,3.6-7.4,1.3-1.4,1,.5,2.2-.3,3.1-.8,2.4.7-.4,4.6-.4,6.5.4,3.9,2.4-4.1,2.4-5ZM689.5,22.9c.2-.6.2-1.5-.4-1.2-.6.3-.1,3,.4,1.2Z"/>
  </g>
  <g>
    <path class="st0" d="M764.9,24.8c1.4,2.4-2.3,11.2-4.6,5.1-6.9,6.5-4.9-13.1,1.1-6.9.3-1.2,1.8-.8,2.1.1-.3,1.9-1,3.6-.9,5.5,1,5.4,1.6-3.9,2.3-3.9ZM761.1,24c-1.1-4.9-3.8,4.3-2.5,5.9,1.4,2.2,1.9-5,2.5-5.9Z"/>
    <path class="st0" d="M770.5,24.9c1.6.2-1,3.5-1.5,3.4.4,2.4-1.9,9.2-4.1,4.9-1.2-4.2-.5-10.9,1-14.9,1.1-2.9,3.1-3.5,3.9-1.3-2.5,1.6-2.3,5.6-2.9,9.2,1-.6,1.7.2,1.9,1.3.8-.3,1.1-1.6,1.6-2.6ZM767.7,32.1c.5-1.3.7-2.6.7-3.7-.5,0-1-.1-1.4-.4,0,.7-.2,5.4.7,4.1ZM767,27.1c0,.4.9.6,1.2.6-.1-.8-.4-1.4-1.2-.6Z"/>
    <path class="st0" d="M776.1,18.6c.4,1.1-1.5,1.1-2.4.9-1.2,2.9,0,18.4,1.2,7.5.2-.2-.4-2.5.6-2,.1,15.6-7.6,5.3-4.6-6-1-.2-1.3-.5-2,0-1,.2-.9-1,0-1,.7-.2,1.5.1,2.2.3.4-1.9,2-5.3,4.2-3.2-.8,1-1.2,2.4-1.5,3.7.5,0,1.3.3,1.6-.2.2-.3.5-.1.7,0Z"/>
    <path class="st0" d="M781,24.8c.2,10.6-10.6,6.5-5-2,1-1.3,3.7-1.3,3.9.6.2,1.6-1.8,2.9-3.2,3.3-.2,2.8,1.8,4.7,3.1,1.2.7-.8.3-2.6,1.2-3.1ZM776.7,25.8c.7.3,1.8-1.1,1.8-1.9-.3-1.7-1.8.8-1.8,1.9Z"/>
    <path class="st0" d="M787.5,24.9c1.6,0-.4,4.6-.8,5.8-.6,1.9-3.5,3-4.1.5-.1-1.9.3-2.7,1-4.9.2-.7-1.9,0-2.4-.8-3.8-3.1,3.6-7.4,1.3-1.4,1,.5,2.2-.3,3.1-.8,2.4.7-.4,4.6-.4,6.5.4,3.9,2.4-4.1,2.4-5ZM782.2,23.1c.2-.6.2-1.5-.4-1.2-.6.3-.1,3,.4,1.2Z"/>
  </g>
  <g>
    <path class="st0" d="M857.6,25c1.4,2.4-2.3,11.2-4.6,5.1-6.9,6.5-4.9-13.1,1.1-6.9.3-1.2,1.8-.8,2.1.1-.3,1.9-1,3.6-.9,5.5,1,5.4,1.6-3.9,2.3-3.9ZM853.8,24.2c-1.1-4.9-3.8,4.3-2.5,5.9,1.4,2.2,1.9-5,2.5-5.9Z"/>
    <path class="st0" d="M863.2,25c1.6.2-1,3.5-1.5,3.4.4,2.4-1.9,9.2-4.1,4.9-1.2-4.2-.5-10.9,1-14.9,1.1-2.9,3.1-3.5,3.9-1.3-2.5,1.6-2.3,5.6-2.9,9.2,1-.6,1.7.2,1.9,1.3.8-.3,1.1-1.6,1.6-2.6ZM860.3,32.3c.5-1.3.7-2.6.7-3.7-.5,0-1-.1-1.4-.4,0,.7-.2,5.4.7,4.1ZM859.7,27.3c0,.4.9.6,1.2.6-.1-.8-.4-1.4-1.2-.6Z"/>
    <path class="st0" d="M868.7,18.7c.4,1.1-1.5,1.1-2.4.9-1.2,2.9,0,18.4,1.2,7.5.2-.2-.4-2.5.6-2,.1,15.6-7.6,5.3-4.6-6-1-.2-1.3-.5-2,0-1,.2-.9-1,0-1,.7-.2,1.5.1,2.2.3.4-1.9,2-5.3,4.2-3.2-.8,1-1.2,2.4-1.5,3.7.5,0,1.3.3,1.6-.2.2-.3.5-.1.7,0Z"/>
    <path class="st0" d="M873.6,25c.2,10.6-10.6,6.5-5-2,1-1.3,3.7-1.3,3.9.6.2,1.6-1.8,2.9-3.2,3.3-.2,2.8,1.8,4.7,3.1,1.2.7-.8.3-2.6,1.2-3.1ZM869.4,26c.7.3,1.8-1.1,1.8-1.9-.3-1.7-1.8.8-1.8,1.9Z"/>
    <path class="st0" d="M880.2,25.1c1.6,0-.4,4.6-.8,5.8-.6,1.9-3.5,3-4.1.5-.1-1.9.3-2.7,1-4.9.2-.7-1.9,0-2.4-.8-3.8-3.1,3.6-7.4,1.3-1.4,1,.5,2.2-.3,3.1-.8,2.4.7-.4,4.6-.4,6.5.4,3.9,2.4-4.1,2.4-5ZM874.9,23.3c.2-.6.2-1.5-.4-1.2-.6.3-.1,3,.4,1.2Z"/>
  </g>
  <g>
    <path class="st0" d="M949.9,25.8c1.4,2.4-2.3,11.2-4.6,5.1-6.9,6.5-4.9-13.1,1.1-6.9.3-1.2,1.8-.8,2.1.1-.3,1.9-1,3.6-.9,5.5,1,5.4,1.6-3.9,2.3-3.9ZM946.1,24.9c-1.1-4.9-3.8,4.3-2.5,5.9,1.4,2.2,1.9-5,2.5-5.9Z"/>
    <path class="st0" d="M955.5,25.8c1.6.2-1,3.5-1.5,3.4.4,2.4-1.9,9.2-4.1,4.9-1.2-4.2-.5-10.9,1-14.9,1.1-2.9,3.1-3.5,3.9-1.3-2.5,1.6-2.3,5.6-2.9,9.2,1-.6,1.7.2,1.9,1.3.8-.3,1.1-1.6,1.6-2.6ZM952.7,33.1c.5-1.3.7-2.6.7-3.7-.5,0-1-.1-1.4-.4,0,.7-.2,5.4.7,4.1ZM952,28c0,.4.9.6,1.2.6-.1-.8-.4-1.4-1.2-.6Z"/>
    <path class="st0" d="M961.1,19.5c.4,1.1-1.5,1.1-2.4.9-1.2,2.9,0,18.4,1.2,7.5.2-.2-.4-2.5.6-2,.1,15.6-7.6,5.3-4.6-6-1-.2-1.3-.5-2,0-1,.2-.9-1,0-1,.7-.2,1.5.1,2.2.3.4-1.9,2-5.3,4.2-3.2-.8,1-1.2,2.4-1.5,3.7.5,0,1.3.3,1.6-.2.2-.3.5-.1.7,0Z"/>
    <path class="st0" d="M966,25.8c.2,10.6-10.6,6.5-5-2,1-1.3,3.7-1.3,3.9.6.2,1.6-1.8,2.9-3.2,3.3-.2,2.8,1.8,4.7,3.1,1.2.7-.8.3-2.6,1.2-3.1ZM961.7,26.7c.7.3,1.8-1.1,1.8-1.9-.3-1.7-1.8.8-1.8,1.9Z"/>
    <path class="st0" d="M972.5,25.9c1.6,0-.4,4.6-.8,5.8-.6,1.9-3.5,3-4.1.5-.1-1.9.3-2.7,1-4.9.2-.7-1.9,0-2.4-.8-3.8-3.1,3.6-7.4,1.3-1.4,1,.5,2.2-.3,3.1-.8,2.4.7-.4,4.6-.4,6.5.4,3.9,2.4-4.1,2.4-5ZM967.2,24.1c.2-.6.2-1.5-.4-1.2-.6.3-.1,3,.4,1.2Z"/>
  </g>
</svg>